<svg width="100" height="80" viewBox="0 0 100 80" fill="none" xmlns="http://www.w3.org/2000/svg">
<path d="M0 16.3605L44.2388 10.8634L35.3387 0H7.47241C3.34551 0 0 3.34552 0 7.47241V16.3605Z" fill="#FFA000"/>
<path d="M0 16.3605L44.2388 10.8634L35.3387 0H7.47241C3.34551 0 0 3.34552 0 7.47241V16.3605Z" fill="#FFA000"/>
<path d="M0 17.5505C0 13.4236 3.34551 10.0781 7.47241 10.0781H91.9996C96.1265 10.0781 99.4721 13.4236 99.4721 17.5505V71.8435C99.4721 75.9704 96.1265 79.3159 91.9996 79.3159H7.47242C3.34552 79.3159 0 75.9704 0 71.8435V17.5505Z" fill="#FFCA28"/>
<path d="M0 17.5505C0 13.4236 3.34551 10.0781 7.47241 10.0781H91.9996C96.1265 10.0781 99.4721 13.4236 99.4721 17.5505V71.8435C99.4721 75.9704 96.1265 79.3159 91.9996 79.3159H7.47242C3.34552 79.3159 0 75.9704 0 71.8435V17.5505Z" fill="#FFCA28"/>
</svg>
